<?xml version="1.0" standalone="no"?>
<!DOCTYPE svg PUBLIC "-//W3C//DTD SVG 1.1//EN" "http://www.w3.org/Graphics/SVG/1.1/DTD/svg11.dtd" >
<svg xmlns="http://www.w3.org/2000/svg">
<metadata></metadata>
<defs>
<font id="SonusLight" horiz-adv-x="1126" >
<font-face units-per-em="2048" ascent="1638" descent="-410" />
<missing-glyph horiz-adv-x="442" />
<glyph horiz-adv-x="0" />
<glyph horiz-adv-x="2048" />
<glyph unicode=" "  horiz-adv-x="442" />
<glyph unicode="&#x09;" horiz-adv-x="442" />
<glyph unicode="&#xa0;" horiz-adv-x="442" />
<glyph unicode="!" horiz-adv-x="557" d="M199 94q0 55 32 85t76 30t75.5 -28t31.5 -87q0 -53 -30.5 -79.5t-80.5 -26.5q-40 0 -72 25.5t-32 80.5zM227 1384h164q0 -61 -20 -962h-123q-21 946 -21 962z" />
<glyph unicode="&#x22;" horiz-adv-x="724" d="M125 1427h143l-28 -561h-86zM457 1427h141l-29 -561h-84z" />
<glyph unicode="#" horiz-adv-x="1161" d="M80 449v116h254l33 236h-234v117h252l59 413h91l-60 -413h283l59 413h90l-59 -413h231v-117h-250l-32 -236h231v-116h-250l-63 -449h-90l63 449h-282l-64 -449h-90l63 449h-235zM424 565h283l32 236h-282z" />
<glyph unicode="$" horiz-adv-x="1069" d="M57 145l84 117q165 -131 355 -131v471l-88 35q-140 56 -202.5 136.5t-62.5 197.5q0 138 93.5 233.5t259.5 116.5v223h90v-217q187 -3 348 -84l-70 -131q-125 79 -278 82v-467l76 -31q143 -57 214.5 -133.5t71.5 -191.5q0 -154 -96.5 -251.5t-265.5 -119.5v-207h-90v203 q-256 3 -439 149zM299 987q0 -79 42.5 -128.5t154.5 -96.5v424q-97 -19 -147 -76t-50 -123zM586 137q96 19 149 73.5t53 135.5q0 70 -43.5 120t-158.5 99v-428z" />
<glyph unicode="%" horiz-adv-x="1630" d="M57 887q0 207 83.5 329.5t230.5 122.5q137 0 214 -112t77 -303q0 -216 -83 -333.5t-225 -117.5q-139 0 -218 112t-79 302zM166 901q0 -328 192 -328q89 0 143 84.5t54 251.5q0 332 -190 332q-90 0 -144.5 -88.5t-54.5 -251.5zM442 0l650 1319h94l-647 -1319h-97zM969 397 q0 207 82.5 330t230.5 123q135 0 212 -112.5t77 -303.5q0 -217 -82 -333.5t-225 -116.5q-138 0 -216.5 111t-78.5 302zM1075 412q0 -330 195 -330q89 0 142.5 84.5t53.5 251.5q0 332 -192 332q-89 0 -144 -88.5t-55 -249.5z" />
<glyph unicode="&#x26;" horiz-adv-x="1359" d="M94 383q0 152 78 245t248 169q-52 81 -74 147.5t-22 151.5q0 135 92.5 226t255.5 91q143 0 225 -74t82 -206q0 -66 -27.5 -123t-80.5 -104t-111.5 -83.5t-138.5 -74.5q192 -259 360 -406q107 118 164 279l139 -48q-72 -187 -203 -329q105 -81 271 -140l-52 -133 q-155 39 -321 170q-79 -74 -192.5 -120t-229.5 -46q-207 0 -335 110.5t-128 297.5zM242 395q0 -38 8.5 -74.5t30.5 -75.5t56.5 -68t92 -47.5t131.5 -18.5q96 0 179.5 38t140.5 87q-220 198 -396 452q-128 -58 -185.5 -128.5t-57.5 -164.5zM469 1096q0 -128 88 -246 q279 121 279 276q0 77 -40.5 123.5t-121.5 46.5q-108 0 -156.5 -58.5t-48.5 -141.5z" />
<glyph unicode="'" horiz-adv-x="393" d="M125 1427h143l-28 -561h-86z" />
<glyph unicode="(" horiz-adv-x="606" d="M102 565q0 155 34.5 295t95.5 250.5t131 195.5t155 158h103q-83 -87 -147.5 -176.5t-120 -200t-85.5 -242t-30 -274.5q0 -516 380 -931h-98q-75 56 -145.5 140.5t-133.5 199.5t-101 267.5t-38 317.5z" />
<glyph unicode=")" horiz-adv-x="606" d="M-14 -360q83 87 147.5 176t120 199.5t85.5 242t30 274.5q0 516 -381 932h98q75 -56 145.5 -140.5t133.5 -199.5t101 -267.5t38 -317.5q0 -153 -34.5 -293t-95.5 -251t-131 -197t-155 -158h-102z" />
<glyph unicode="*" horiz-adv-x="833" d="M51 1112l35 100q195 -65 291 -102q-9 142 -12 305h102q0 -137 -10 -307q49 19 162 58.5t131 45.5l34 -98q-107 -33 -305 -88l195 -246l-84 -59q-152 211 -178 250q-6 -8 -176 -250l-82 57q42 58 194 248q-128 34 -297 86z" />
<glyph unicode="+" horiz-adv-x="1433" d="M184 551v106h478v476h110v-476h477v-106h-477v-481h-108v481h-480z" />
<glyph unicode="," horiz-adv-x="389" d="M10 -326q43 99 82 244t53 285h152q-32 -259 -168 -529h-119z" />
<glyph unicode="-" horiz-adv-x="622" d="M76 508v106h471v-106h-471z" />
<glyph unicode="." horiz-adv-x="389" d="M90 92q0 55 31 83t74 28q44 0 74 -26.5t30 -84.5q0 -53 -29.5 -78.5t-76.5 -25.5q-40 0 -71.5 25t-31.5 79z" />
<glyph unicode="/" horiz-adv-x="772" d="M-2 -109l672 1543h90l-670 -1543h-92z" />
<glyph unicode="0" d="M82 631q0 327 133 522t365 195q219 0 340.5 -177.5t121.5 -480.5q0 -344 -130.5 -529.5t-356.5 -185.5q-221 0 -347 177t-126 479zM231 653q0 -280 88.5 -410t243.5 -130q151 0 242.5 139.5t91.5 411.5q0 89 -9 164.5t-32.5 147t-59.5 121t-94 79.5t-133 30 q-153 0 -245.5 -144.5t-92.5 -408.5z" />
<glyph unicode="1" d="M203 1081q194 128 354 244h123v-1325h-141v1151q-135 -92 -275 -174z" />
<glyph unicode="2" d="M76 0v109q348 256 567 477q85 87 134.5 182t49.5 184q0 107 -67.5 180.5t-208.5 73.5q-86 0 -185 -33t-186 -86l-57 123q226 138 448 138q198 0 305 -104t107 -281q0 -243 -256 -484q-187 -180 -426 -350q211 2 696 2v-131h-921z" />
<glyph unicode="3" d="M141 1235q94 51 204 82t202 31q381 0 381 -318q0 -110 -68.5 -189.5t-195.5 -117.5q152 -12 231.5 -90t79.5 -219q0 -96 -39 -174t-106 -130t-161 -87t-200 -50.5t-227 -15.5q-55 0 -84 2v141q25 -2 73 -2q280 0 435 83.5t155 226.5q0 49 -12.5 85.5t-45.5 69t-100 49.5 t-167 17q-43 0 -125 -8l-9 135q116 7 200.5 30.5t131 60t67.5 77.5t21 90q0 192 -256 192q-70 0 -158.5 -25.5t-174.5 -74.5z" />
<glyph unicode="4" d="M78 340v100l633 885h145v-862h201v-123h-201v-365h-143v365h-635zM240 463h473q0 520 4 674q-148 -220 -477 -674z" />
<glyph unicode="5" d="M158 -39v141q29 -2 75 -2q278 0 435 91.5t157 246.5q0 147 -84.5 208t-248.5 61q-112 0 -283 -52l70 670h655v-135h-537l-41 -373q102 27 207 27q200 0 310 -102.5t110 -292.5q0 -99 -37 -180.5t-103 -138.5t-159 -95.5t-203.5 -57t-238.5 -18.5q-55 0 -84 2z" />
<glyph unicode="6" d="M125 584q0 164 50 306.5t139.5 247.5t222.5 165.5t292 60.5q78 0 142 -10l-21 -142q-58 9 -121 9q-243 0 -381 -146t-174 -416q55 86 148.5 143.5t228.5 57.5q178 0 283.5 -110.5t105.5 -317.5q0 -202 -122 -329.5t-330 -127.5q-68 0 -130.5 18t-124 62.5t-107 112 t-73.5 174.5t-28 242zM301 416q0 -41 10.5 -83t33.5 -84t56.5 -74.5t84 -52.5t110.5 -20q137 0 219 89t82 241q0 132 -73 216.5t-214 84.5q-96 0 -168.5 -49.5t-109.5 -122.5q-31 -67 -31 -145z" />
<glyph unicode="7" d="M106 1190v135h891v-115q-163 -329 -285 -614.5t-218 -595.5h-168q183 573 510 1190h-730z" />
<glyph unicode="8" d="M117 346q0 122 73 209t207 135q-119 50 -174 130.5t-55 178.5q0 161 115 255t290 94q184 0 289 -87t105 -237q0 -220 -242 -328q139 -45 212 -132.5t73 -203.5q0 -177 -128 -281t-319 -104q-194 0 -320 100t-126 271zM262 360q0 -108 81.5 -179.5t219.5 -71.5 q137 0 220 68.5t83 174.5q0 115 -79 178.5t-244 102.5q-138 -33 -209.5 -104.5t-71.5 -168.5zM307 999q0 -103 68 -158.5t207 -88.5q112 28 180.5 91t68.5 156t-63.5 156.5t-194.5 63.5q-125 0 -195.5 -61.5t-70.5 -158.5z" />
<glyph unicode="9" d="M125 889q0 202 123 330.5t332 128.5q70 0 133.5 -18t124 -62t104 -111t70 -174t26.5 -242q0 -164 -47 -306t-133.5 -248t-218.5 -167t-293 -61q-89 0 -153 10l24 140q54 -11 123 -11q124 0 223 43t165 121t106 180t53 226q-49 -84 -145.5 -141.5t-223.5 -57.5 q-181 0 -287 107t-106 313zM270 889q0 -129 76 -210t213 -81q95 0 165.5 49.5t106.5 122.5q29 63 29 141q0 41 -9.5 82.5t-31.5 82.5t-54.5 72.5t-82.5 51t-111 19.5q-136 0 -218.5 -90t-82.5 -240z" />
<glyph unicode=":" horiz-adv-x="430" d="M131 92q0 55 31 83t74 28q44 0 74 -26.5t30 -84.5q0 -53 -29.5 -78.5t-77.5 -25.5q-39 0 -70.5 25t-31.5 79zM131 831q0 55 31 83t74 28q44 0 74 -26.5t30 -84.5q0 -53 -30 -79.5t-77 -26.5q-39 0 -70.5 26t-31.5 80z" />
<glyph unicode=";" horiz-adv-x="430" d="M51 -326q43 99 82 244t53 285h152q-32 -259 -168 -529h-119zM131 831q0 55 31 83t74 28q44 0 74 -26.5t30 -84.5q0 -53 -30 -79.5t-77 -26.5q-39 0 -70.5 26t-31.5 80z" />
<glyph unicode="&#x3c;" horiz-adv-x="1433" d="M236 543v110l923 455v-127l-799 -379l799 -371v-131z" />
<glyph unicode="=" horiz-adv-x="1433" d="M184 352v109h1065v-109h-1065zM184 737v107h1065v-107h-1065z" />
<glyph unicode="&#x3e;" horiz-adv-x="1433" d="M274 100v127l801 379l-801 371v131l924 -444v-109z" />
<glyph unicode="?" horiz-adv-x="831" d="M74 1335q73 34 164.5 56t164.5 22q169 0 255.5 -76.5t86.5 -214.5q0 -102 -40 -178.5t-152 -177.5q-43 -39 -61 -57t-38.5 -46t-27 -55t-6.5 -65q0 -63 16 -113l-125 -14q-22 75 -22 127q0 78 27.5 133t105.5 127q93 85 132.5 150t39.5 137q0 86 -56.5 135t-162.5 49 q-134 0 -262 -64zM268 94q0 55 32 85t75 30q45 0 75.5 -27.5t30.5 -87.5q0 -53 -29.5 -79.5t-78.5 -26.5q-40 0 -72.5 25.5t-32.5 80.5z" />
<glyph unicode="@" horiz-adv-x="1626" d="M115 416q0 177 61 331t166.5 263.5t253.5 172t317 62.5q282 0 447.5 -158.5t165.5 -431.5q0 -147 -53 -279t-140.5 -211t-185.5 -79q-65 0 -99.5 45t-37.5 145q-152 -202 -346 -202q-110 0 -175 71t-65 197q0 96 38 209.5t107 198.5q68 88 154 132t176 44q73 0 129.5 -28 t83.5 -81l23 82l98 10l-103 -465q-24 -94 -24 -174q0 -94 65 -94q62 0 125 66.5t104.5 177.5t41.5 229q0 243 -146.5 380.5t-386.5 137.5q-152 0 -283.5 -58.5t-223 -159t-143.5 -238.5t-52 -293q0 -180 74.5 -320t221 -221.5t343.5 -81.5q158 0 283 41t255 117l43 -76 q-283 -166 -593 -166q-213 0 -377 89.5t-253 250t-89 365.5zM530 350q0 -90 43.5 -134t114.5 -44q55 0 106 21t88 54t61.5 62t41.5 58q34 75 53 151q33 116 33 178q0 65 -45.5 103.5t-124.5 38.5q-66 0 -132.5 -35t-117.5 -101q-54 -70 -87.5 -168.5t-33.5 -183.5z" />
<glyph unicode="A" horiz-adv-x="1212" d="M6 0l520 1384h170l510 -1384h-153l-164 432h-565l-168 -432h-150zM360 559h494q-203 529 -244 666q-57 -169 -250 -666z" />
<glyph unicode="B" horiz-adv-x="1222" d="M182 0v1378q172 13 355 13q127 0 220 -15.5t164.5 -52t107.5 -101t36 -157.5q0 -131 -76.5 -217t-218.5 -115q161 -14 256.5 -98.5t95.5 -228.5q0 -326 -354 -381q-100 -16 -229 -20.5t-357 -4.5zM324 135q295 0 426 27q113 23 166 83.5t53 168.5q0 94 -70.5 156 t-216.5 73q-80 6 -272 6h-86v-514zM324 784h82q63 0 107 1.5t101 7t96.5 16t80.5 29t65.5 45t40.5 66t16 89.5q0 122 -85 172t-281 50q-141 0 -223 -5v-471z" />
<glyph unicode="C" horiz-adv-x="1245" d="M96 647q0 358 179.5 562t480.5 204q231 0 405 -94l-71 -135q-146 90 -342 90q-77 0 -147.5 -20.5t-135 -68t-111 -117.5t-74.5 -176t-28 -237q0 -254 134.5 -399t338.5 -145q125 0 219.5 45t190.5 141l90 -102q-234 -224 -529 -224q-126 0 -235.5 46t-190.5 131 t-127.5 213.5t-46.5 285.5z" />
<glyph unicode="D" horiz-adv-x="1378" d="M182 0v1378q249 13 375 13q242 0 381 -58q78 -31 137.5 -78.5t107.5 -117.5t73.5 -171t25.5 -229q0 -550 -446 -686q-103 -31 -244 -40t-410 -11zM326 139q298 0 450 47q176 50 263 191.5t87 357.5q0 335 -231 459q-116 61 -346 61q-143 0 -223 -6v-1110z" />
<glyph unicode="E" horiz-adv-x="1116" d="M182 0v1384h801v-135h-657v-465h622v-135h-622v-512h721v-137h-865z" />
<glyph unicode="F" horiz-adv-x="1048" d="M182 0v1384h795v-135h-651v-489h596v-135h-596v-625h-144z" />
<glyph unicode="G" horiz-adv-x="1409" d="M96 647q0 358 180.5 562t481.5 204q246 0 428 -98l-74 -135q-158 94 -360 94q-107 0 -197.5 -39t-158.5 -114.5t-106 -194.5t-38 -271q0 -129 35 -232.5t96.5 -170t143 -102t175.5 -35.5q131 0 228 62t141 157q35 80 35 205v43h-336v135h475v-717h-131v182 q-141 -207 -436 -207q-261 0 -421.5 179.5t-160.5 492.5z" />
<glyph unicode="H" horiz-adv-x="1378" d="M182 0v1384h144v-600h727v600h143v-1384h-143v649h-727v-649h-144z" />
<glyph unicode="I" horiz-adv-x="507" d="M182 0v1384h144v-1384h-144z" />
<glyph unicode="J" horiz-adv-x="768" d="M2 12l39 138q117 -37 182 -37q140 0 195 102q33 65 33 252v917h145v-915q0 -228 -43 -322q-35 -80 -113.5 -126t-197.5 -46q-147 0 -240 37z" />
<glyph unicode="K" horiz-adv-x="1212" d="M182 0v1384h144v-725l647 725h178l-494 -544l545 -840h-176l-469 717l-231 -246v-471h-144z" />
<glyph unicode="L" horiz-adv-x="1028" d="M182 0v1384h144v-1249h661v-135h-805z" />
<glyph unicode="M" horiz-adv-x="1632" d="M147 0l48 1384h194q351 -728 432 -917q11 23 68.5 150t143.5 312.5t214 454.5h185l55 -1384h-141q-44 942 -48 1194q-12 -28 -22 -51.5t-24.5 -56.5t-25.5 -56.5t-34 -74t-39 -84.5t-52 -111t-61.5 -131.5t-79 -169t-94.5 -201.5h-98q-387 807 -444 938 q-6 -359 -37 -1196h-140z" />
<glyph unicode="N" horiz-adv-x="1378" d="M182 0v1384h154q624 -981 690 -1091q16 -26 33 -55q-6 302 -6 1146h145v-1384h-154q-652 1033 -722 1147q4 -190 4 -1147h-144z" />
<glyph unicode="O" horiz-adv-x="1462" d="M96 657q0 223 75.5 392.5t226.5 266.5t360 97q188 0 327 -88.5t210 -242.5t71 -353q0 -346 -172 -552t-473 -206q-192 0 -335 89.5t-216.5 244t-73.5 352.5zM252 690q0 -289 129.5 -434t353.5 -145q209 0 342 157.5t133 421.5q0 94 -14 176t-48.5 158.5t-88 130.5 t-138 86.5t-192.5 32.5q-142 0 -251.5 -77.5t-167.5 -210t-58 -296.5z" />
<glyph unicode="P" horiz-adv-x="1185" d="M182 0v1378q236 13 359 13q138 0 235.5 -17.5t172 -59.5t111 -117t36.5 -187q0 -152 -74 -260t-223 -148q-110 -29 -301 -29q-101 0 -172 5v-578h-144zM326 709q103 -7 174 -7q123 0 196 13q123 18 187.5 94t64.5 195q0 133 -88.5 193t-290.5 60q-180 0 -243 -6v-542z " />
<glyph unicode="Q" horiz-adv-x="1462" d="M96 657q0 223 75.5 392.5t226.5 266.5t360 97q188 0 327 -88.5t210 -242.5t71 -353q0 -288 -122 -482.5t-341 -252.5q111 -50 278 -101.5t314 -74.5l-31 -129q-156 21 -314 70.5t-267 98.5t-236 117q-171 16 -296.5 108.5t-190 240t-64.5 333.5zM252 690 q0 -289 129.5 -434t353.5 -145q209 0 342 157.5t133 421.5q0 94 -14 176t-48.5 158.5t-88 130.5t-138 86.5t-192.5 32.5q-142 0 -251.5 -77.5t-167.5 -210t-58 -296.5z" />
<glyph unicode="R" horiz-adv-x="1202" d="M182 0v1378q236 13 363 13q133 0 226.5 -18t162.5 -60t102 -114.5t33 -178.5q0 -138 -79 -227.5t-220 -124.5q76 -28 140 -111.5t147 -269.5q10 -23 37 -82.5t50 -108.5t48 -96h-156q-56 105 -94 199q-77 178 -125 252t-117 122q-33 23 -78 32t-126 11q-43 0 -170 5v-621 h-144zM326 750q148 -5 194 -5q98 0 168 13q236 41 236 256q0 133 -82 190.5t-275 57.5q-167 0 -241 -7v-505z" />
<glyph unicode="S" horiz-adv-x="1042" d="M33 133l96 125q87 -73 175 -108t194 -35q140 0 226.5 67.5t86.5 175.5q0 79 -53 134.5t-195 113.5l-157 66q-146 60 -211.5 146.5t-65.5 209.5q0 169 124.5 277t342.5 108q184 0 356 -90l-71 -135q-136 86 -301 86q-76 0 -134.5 -20.5t-92.5 -54t-51 -73t-17 -82.5 q0 -86 45.5 -138t165.5 -103l176 -74q147 -61 221 -142t74 -204q0 -188 -128.5 -298t-349.5 -110q-118 0 -240 41t-216 117z" />
<glyph unicode="T" horiz-adv-x="1112" d="M47 1249v135h1020v-135h-446v-1249h-144v1249h-430z" />
<glyph unicode="U" horiz-adv-x="1353" d="M168 567v817h143v-806q0 -208 33 -289q64 -174 336 -174q248 0 319 159q41 78 41 293v817h146v-813q0 -147 -14 -234t-50 -153q-115 -207 -448 -207q-349 0 -455 226q-51 107 -51 364z" />
<glyph unicode="V" horiz-adv-x="1185" d="M2 1384h160q359 -991 428 -1212q74 229 440 1212h154l-512 -1384h-170z" />
<glyph unicode="W" horiz-adv-x="1761" d="M18 1384h158q145 -582 192 -780t91 -407q47 180 102.5 369.5t245.5 817.5h147q184 -589 244.5 -792.5t110.5 -394.5q77 355 280 1187h154l-352 -1384h-160q-273 904 -352 1180q-10 -41 -21.5 -82t-22 -78t-29 -99.5t-32.5 -109t-44.5 -146.5t-52.5 -172t-69 -225 t-82 -268h-161z" />
<glyph unicode="X" horiz-adv-x="1243" d="M31 0l495 733l-444 651h174q362 -522 377 -542q237 358 362 542h162l-444 -661l499 -723h-178q-126 181 -218.5 316t-138 201.5t-67.5 98.5q-16 -24 -64 -97t-136 -204.5t-211 -314.5h-168z" />
<glyph unicode="Y" horiz-adv-x="1161" d="M2 1384h170q305 -503 408 -686q167 290 415 686h162l-514 -831v-553h-143v553z" />
<glyph unicode="Z" horiz-adv-x="1171" d="M39 0v111q270 357 467 615t286.5 373.5t114.5 149.5h-786v135h977v-106q-759 -1009 -865 -1141h873v-137h-1067z" />
<glyph unicode="[" horiz-adv-x="542" d="M178 -344v1788h359v-90h-236v-1604h236v-94h-359z" />
<glyph unicode="\" horiz-adv-x="772" d="M12 1434h90l672 -1543h-92z" />
<glyph unicode="]" horiz-adv-x="542" d="M8 -252h236v1604h-236v92h359v-1788h-359v92z" />
<glyph unicode="^" horiz-adv-x="1447" d="M274 578l383 806h131l386 -806h-127l-326 675l-320 -675h-127z" />
<glyph unicode="_" horiz-adv-x="1026" d="M0 -184h1026v-82h-1026v82z" />
<glyph unicode="`" horiz-adv-x="411" d="M-10 1458h184l250 -311h-133z" />
<glyph unicode="a" horiz-adv-x="1021" d="M82 258q0 185 194 264q161 65 455 78v66q0 135 -44.5 191t-166.5 56q-71 0 -164 -29t-182 -85l-53 106q106 63 218.5 96t209.5 33q184 0 258 -98q59 -77 59 -274q0 -29 -6 -662h-125l-6 168q-54 -88 -142.5 -138t-203.5 -50q-137 0 -219 79.5t-82 198.5zM219 270 q0 -74 51 -121t146 -47q86 0 164 52.5t114 130.5q39 88 39 211q-291 -20 -414 -82q-100 -48 -100 -144z" />
<glyph unicode="b" horiz-adv-x="1132" d="M166 0v1460l137 25v-672q61 92 162.5 155.5t226.5 63.5q172 0 264.5 -125t92.5 -368q0 -143 -37 -253.5t-101 -175t-141.5 -96.5t-165.5 -32q-188 0 -309 127l-8 -109h-121zM301 444q0 -140 33 -204q32 -62 99 -102t149 -40q64 0 120 25t102.5 74t73.5 132.5t27 190.5 q0 387 -260 387q-57 0 -111.5 -24.5t-93 -62.5t-66 -78t-40.5 -76q-33 -96 -33 -222z" />
<glyph unicode="c" horiz-adv-x="950" d="M84 469q0 266 138.5 415.5t357.5 149.5q159 0 290 -69l-65 -119q-101 61 -223 61q-164 0 -260.5 -118.5t-96.5 -313.5q0 -180 88 -278.5t230 -98.5q153 0 309 142l70 -90q-178 -175 -410 -175q-189 0 -308.5 131.5t-119.5 362.5z" />
<glyph unicode="d" horiz-adv-x="1132" d="M84 471q0 137 37.5 246.5t100.5 176t141.5 101.5t164.5 35q200 0 299 -115v545l140 25v-1485h-131l-7 174q-128 -192 -366 -192q-168 0 -273.5 128.5t-105.5 360.5zM227 487q0 -105 23 -182t63.5 -120t88 -63t104.5 -20q61 0 114.5 24.5t89.5 63t59 75.5t34 71 q26 84 26 201q0 177 -32 239q-35 60 -98.5 98.5t-145.5 38.5q-136 0 -231 -116t-95 -310z" />
<glyph unicode="e" horiz-adv-x="1030" d="M84 489q0 133 40 239.5t107 171.5t150.5 99.5t175.5 34.5q94 0 165 -28t114 -73.5t70 -113.5t36.5 -138.5t9.5 -158.5l-731 -26q1 -198 92 -297t254 -99q97 0 172 35.5t152 104.5l78 -88q-92 -84 -192.5 -130.5t-237.5 -46.5q-210 0 -332.5 143t-122.5 371zM225 604 l588 25q-3 50 -10.5 88.5t-26 77.5t-46.5 65t-74 42t-107 16q-54 0 -104.5 -17.5t-96 -53t-78 -98t-45.5 -145.5z" />
<glyph unicode="f" horiz-adv-x="634" d="M61 887v104l160 15v81q0 195 80 291q42 51 111.5 80t144.5 29q94 0 188 -23l-30 -121q-74 21 -144 21q-49 0 -92 -21.5t-71 -58.5q-48 -62 -48 -194v-82h277v-121h-277v-887h-139v887h-160z" />
<glyph unicode="g" horiz-adv-x="1015" d="M55 -236q0 166 199 265q-94 18 -141 69.5t-47 118.5q0 66 36 118.5t125 106.5q-92 92 -92 246q0 153 102.5 249.5t284.5 96.5q84 0 160 -26h313v-121h-172q66 -74 66 -191q0 -164 -105.5 -257t-281.5 -93q-108 0 -176 35q-52 -20 -86.5 -55.5t-34.5 -75.5 q0 -111 172 -111q59 0 175 2t146 2q295 0 295 -229q0 -120 -72.5 -215.5t-196 -147t-275.5 -51.5q-196 0 -295 74.5t-99 189.5zM195 -205q0 -89 76 -130.5t202 -41.5q158 0 266.5 77t108.5 169q0 55 -17 84t-67.5 44t-147.5 15q-141 0 -174 -6q-93 -16 -151 -57 q-96 -71 -96 -154zM276 692q0 -116 63.5 -174.5t166.5 -58.5q110 0 177 60.5t67 172.5q0 104 -57 165t-179 61q-113 0 -175.5 -64t-62.5 -162z" />
<glyph unicode="h" horiz-adv-x="1148" d="M166 0v1462l137 23v-674q72 99 189.5 160t236.5 61q107 0 164 -41t72 -129q10 -57 10 -254v-608h-137v590q0 172 -19 233q-29 80 -145 80q-78 0 -169 -50.5t-149 -127.5q-53 -70 -53 -233v-492h-137z" />
<glyph unicode="i" horiz-adv-x="471" d="M150 1307q0 45 24 66.5t62 21.5q83 0 83 -88q0 -44 -23.5 -66t-62.5 -22q-83 0 -83 88zM166 0v997l137 23v-1020h-137z" />
<glyph unicode="j" horiz-adv-x="479" d="M-104 -375q114 25 168.5 58t78 96.5t23.5 185.5v1032l137 23v-1032q0 -197 -39 -279q-71 -158 -344 -203zM150 1307q0 45 24 66.5t62 21.5q83 0 83 -88q0 -44 -23.5 -66t-62.5 -22q-83 0 -83 88z" />
<glyph unicode="k" horiz-adv-x="997" d="M166 0v1460l137 25v-934l453 457h178l-371 -369l426 -639h-166l-356 535l-164 -154v-381h-137z" />
<glyph unicode="l" horiz-adv-x="471" d="M166 0v1460l137 25v-1485h-137z" />
<glyph unicode="m" horiz-adv-x="1777" d="M166 0v997l137 25v-211q86 103 195 162t225 59q118 0 167 -51.5t60 -169.5q80 102 192.5 161.5t231.5 59.5q49 0 85.5 -10.5t61 -24t41 -46t25 -55.5t12.5 -75.5t4.5 -82.5t0.5 -98v-32v-608h-138v596q0 169 -18 229q-23 78 -135 78q-76 0 -162.5 -49.5t-144.5 -126.5 q-26 -35 -39 -83.5t-13 -141.5v-502h-139v596q0 162 -20 229q-13 41 -45 59.5t-86 18.5q-75 0 -162 -51t-146 -129q-26 -35 -39.5 -84t-13.5 -141v-498h-137z" />
<glyph unicode="n" horiz-adv-x="1134" d="M166 0v997l137 25v-209q76 99 190.5 159t233.5 60q108 0 165.5 -42.5t72.5 -129.5q10 -59 10 -254v-606h-137v592q0 165 -19 229q-27 82 -149 82q-76 0 -166 -51.5t-148 -128.5q-53 -75 -53 -234v-489h-137z" />
<glyph unicode="o" horiz-adv-x="1103" d="M84 487q0 248 130.5 397.5t365.5 149.5q207 0 323.5 -139t116.5 -365q0 -254 -126 -404.5t-355 -150.5q-210 0 -332.5 141.5t-122.5 370.5zM227 522q0 -215 86.5 -319.5t239.5 -104.5q139 0 231.5 107t92.5 291q0 68 -9 126t-31.5 113t-58 93.5t-92.5 61.5t-131 23 q-100 0 -176.5 -57.5t-114 -145t-37.5 -188.5z" />
<glyph unicode="p" horiz-adv-x="1132" d="M166 -469v1466l137 25v-211q65 98 163.5 159.5t225.5 61.5q172 0 264.5 -125t92.5 -368q0 -116 -24.5 -210t-66.5 -157.5t-99.5 -106.5t-121 -62t-133.5 -19q-188 0 -301 116v-569h-137zM301 444q0 -140 33 -200q31 -62 99 -104t149 -42q64 0 120 25t102.5 74t73.5 132.5 t27 190.5q0 387 -260 387q-59 0 -113.5 -25.5t-93.5 -65t-66 -80.5t-40 -79q-31 -90 -31 -213z" />
<glyph unicode="q" horiz-adv-x="1128" d="M84 471q0 137 37 246.5t100 176t141 101.5t164 35q208 0 305 -123l3 90l127 23v-1489h-138v647q-54 -86 -144.5 -143.5t-221.5 -57.5q-166 0 -269.5 130.5t-103.5 363.5zM227 487q0 -107 23.5 -185t64 -120t87 -61t100.5 -19q61 0 115 27t89.5 69t58 81t34.5 75 q26 84 26 181q0 167 -32 233t-95.5 105.5t-146.5 39.5q-133 0 -228.5 -114.5t-95.5 -311.5z" />
<glyph unicode="r" horiz-adv-x="704" d="M166 0v997l137 25v-215q63 98 163.5 160t211.5 63v-141q-94 -3 -178.5 -47.5t-141.5 -124.5q-55 -78 -55 -256v-461h-137z" />
<glyph unicode="s" horiz-adv-x="827" d="M37 86l80 115q137 -103 284 -103q101 0 161.5 43.5t60.5 116.5q0 55 -38 91t-145 81l-121 51q-208 86 -208 267q0 126 95 206t269 80q155 0 281 -63l-64 -119q-119 61 -231 61q-105 0 -158 -44t-53 -105t31.5 -100t121.5 -72l142 -53q114 -43 166.5 -103.5t52.5 -154.5 q0 -136 -92.5 -221t-272.5 -85q-100 0 -195 29t-167 82z" />
<glyph unicode="t" horiz-adv-x="665" d="M59 887v104l160 15q0 10 8 264l131 20v-282h265v-121h-265v-531q0 -144 31 -192q35 -55 115 -55q55 0 141 28l33 -119q-106 -38 -213 -38q-60 0 -111.5 23t-79.5 63q-55 76 -55 286v535h-160z" />
<glyph unicode="u" horiz-adv-x="1148" d="M156 408v600h137v-580q0 -42 0.5 -66t2 -57.5t5.5 -52.5t10.5 -43.5t16.5 -38t24 -28t33 -21.5t44 -12t56 -5q77 0 161.5 50.5t129.5 126.5q49 80 49 243v484h140v-1008h-140v180q-160 -203 -389 -203q-111 0 -181 51t-85 140q-14 85 -14 240z" />
<glyph unicode="v" horiz-adv-x="919" d="M2 1008h158q215 -574 299 -842q139 400 309 842h150l-386 -1008h-151z" />
<glyph unicode="w" horiz-adv-x="1409" d="M18 1008h156q163 -625 205 -830q47 162 260 815h147q21 -71 48 -160t42 -137.5t34 -111t28.5 -95t22 -75t19 -65t14 -50.5t12.5 -46t9.5 -37t8.5 -38q33 152 225 830h142l-293 -1008h-150q-65 218 -122 409.5t-81 271.5t-40 138q-57 -196 -267 -819h-147z" />
<glyph unicode="x" horiz-adv-x="956" d="M8 0l381 522l-352 486h174q247 -339 272 -377q31 48 271 377h166l-359 -480l389 -528h-176q-215 298 -305 420q-112 -162 -297 -420h-164z" />
<glyph unicode="y" horiz-adv-x="933" d="M-4 -362q141 42 238.5 126.5t164.5 251.5l-393 992h158q221 -560 317 -834q84 248 303 834h148l-334 -891q-48 -127 -98 -220.5t-98.5 -156.5t-109 -108.5t-118 -72t-137.5 -51.5z" />
<glyph unicode="z" horiz-adv-x="899" d="M51 0v102q475 610 611 779h-558v127h734v-109q-186 -240 -315.5 -405t-196.5 -249.5t-95 -121.5h615v-123h-795z" />
<glyph unicode="{" horiz-adv-x="614" d="M57 514v74q110 21 150.5 80.5t40.5 189.5v275q0 98 20.5 162.5t66.5 101.5t110.5 52t160.5 15v-90q-43 0 -71.5 -3t-62 -16t-53 -37t-33 -69t-13.5 -108v-287q0 -100 -20.5 -160.5t-55.5 -89.5t-98 -51q89 -21 131.5 -86.5t42.5 -204.5v-291q0 -73 18.5 -123t53.5 -75 t73 -35t88 -10v-88q-95 0 -158 14.5t-110 51t-68.5 101.5t-21.5 164v275q0 138 -43.5 196t-147.5 72z" />
<glyph unicode="|" horiz-adv-x="454" d="M178 -348v1849h98v-1849h-98z" />
<glyph unicode="}" horiz-adv-x="614" d="M8 -270q44 0 72.5 3t62 16t53 37.5t33 69.5t13.5 109v285q0 100 20.5 160.5t55.5 89.5t98 51q-89 21 -131.5 87.5t-42.5 203.5v291q0 73 -18.5 123t-53 75t-73 35t-89.5 10v88q95 0 158.5 -14.5t111 -51t69.5 -101t22 -162.5v-277q0 -138 42.5 -196t145.5 -72v-74 q-110 -20 -149 -79.5t-39 -190.5v-273q0 -98 -21 -162.5t-67 -102t-111 -53t-162 -15.5v90z" />
<glyph unicode="~" horiz-adv-x="1433" d="M180 537q83 114 158 161t160 47q48 0 100.5 -19.5t146.5 -74.5q120 -71 201 -71q65 0 115 37.5t110 130.5l82 -58q-72 -113 -141.5 -166t-167.5 -53q-104 0 -242 80q-142 84 -213 84q-62 0 -117 -37.5t-114 -122.5z" />
<glyph unicode="&#xa2;" horiz-adv-x="1036" d="M164 477q0 231 109 371.5t292 169.5v217h92v-209q159 -3 273 -65l-56 -119q-100 62 -217 65v-780q136 14 265 129l75 -90q-69 -64 -157 -107t-183 -55v-211h-92v207q-179 6 -290 132.5t-111 344.5zM309 485q0 -158 67.5 -249.5t188.5 -106.5v768q-121 -31 -188.5 -141 t-67.5 -271z" />
<glyph unicode="&#xa3;" d="M131 0v113q141 71 212 161.5t71 174.5q0 33 -13 90h-237v106h198q-4 8 -22.5 48t-24 52.5t-20 47t-20 53t-13.5 47.5t-11 54t-3 50q0 165 114 258t316 93q184 0 356 -93l-59 -135q-134 88 -285 88q-135 0 -207.5 -61.5t-72.5 -171.5q0 -38 11.5 -83t24 -77.5t37.5 -89.5 l33 -80h387v-106h-354q8 -54 8 -80q0 -88 -57.5 -174t-177.5 -158q225 4 745 4v-131h-936z" />
<glyph unicode="&#xa5;" horiz-adv-x="1243" d="M47 1325h172q314 -516 393 -666q128 214 418 666h164l-383 -604h231v-90h-288l-72 -113v-37h360v-90h-360v-391h-143v391h-357v90h357v37l-70 113h-287v90h232z" />
<glyph unicode="&#xa9;" horiz-adv-x="1662" d="M106 690q0 151 55.5 284.5t151 229.5t230 151.5t286.5 55.5q154 0 290 -55.5t232.5 -151t152 -229t55.5 -285.5q0 -151 -55.5 -284t-151.5 -228t-231.5 -150t-289.5 -55q-205 0 -371 94t-260 258t-94 365zM172 690q0 -137 49.5 -258.5t136 -208.5t209.5 -137.5t264 -50.5 q188 0 339 85.5t235 235t84 334.5q0 186 -84.5 336.5t-236 237t-339.5 86.5q-186 0 -337 -87t-235.5 -238t-84.5 -335zM428 657q0 233 120 360.5t314 127.5q144 0 252 -62l-51 -96q-86 60 -205 60q-149 0 -233 -106t-84 -277q0 -160 80 -248t202 -88q143 0 281 123l55 -76 q-158 -148 -352 -148q-171 0 -275 113.5t-104 316.5z" />
<glyph unicode="&#xad;" horiz-adv-x="622" d="M76 508v106h471v-106h-471z" />
<glyph unicode="&#xae;" horiz-adv-x="1662" d="M106 690q0 151 55.5 284.5t151 229.5t230 151.5t286.5 55.5q154 0 290 -55.5t232.5 -151t152 -229t55.5 -285.5q0 -151 -55.5 -284t-151.5 -228t-231.5 -150t-289.5 -55q-205 0 -371 94t-260 258t-94 365zM172 690q0 -137 49.5 -258.5t136 -208.5t209.5 -137.5t264 -50.5 q188 0 339 85.5t235 235t84 334.5q0 186 -84.5 336.5t-236 237t-339.5 86.5q-186 0 -337 -87t-235.5 -238t-84.5 -335zM545 266v873q136 8 237 8q175 0 258.5 -59t83.5 -179q0 -173 -186 -221q52 -16 93.5 -74.5t88.5 -167.5q18 -43 90 -180h-116q-32 55 -64 129 q-52 112 -82.5 159.5t-64.5 70.5q-41 24 -123 24q-51 0 -109 4v-387h-106zM651 743q12 0 50.5 -1t48.5 -1q134 0 199 34t65 126q0 67 -51 109.5t-164 42.5q-74 0 -148 -4v-306z" />
<glyph unicode="&#xb4;" horiz-adv-x="411" d="M-10 1147l248 311h186l-305 -311h-129z" />
<glyph unicode="&#x2000;" horiz-adv-x="772" />
<glyph unicode="&#x2001;" horiz-adv-x="1544" />
<glyph unicode="&#x2002;" horiz-adv-x="772" />
<glyph unicode="&#x2003;" horiz-adv-x="1544" />
<glyph unicode="&#x2004;" horiz-adv-x="514" />
<glyph unicode="&#x2005;" horiz-adv-x="386" />
<glyph unicode="&#x2006;" horiz-adv-x="257" />
<glyph unicode="&#x2007;" horiz-adv-x="257" />
<glyph unicode="&#x2008;" horiz-adv-x="193" />
<glyph unicode="&#x2009;" horiz-adv-x="308" />
<glyph unicode="&#x200a;" horiz-adv-x="85" />
<glyph unicode="&#x2010;" horiz-adv-x="622" d="M76 508v106h471v-106h-471z" />
<glyph unicode="&#x2011;" horiz-adv-x="622" d="M76 508v106h471v-106h-471z" />
<glyph unicode="&#x2012;" horiz-adv-x="622" d="M76 508v106h471v-106h-471z" />
<glyph unicode="&#x2013;" horiz-adv-x="1075" d="M76 510v104h923v-104h-923z" />
<glyph unicode="&#x2014;" horiz-adv-x="1798" d="M76 510v104h1648v-104h-1648z" />
<glyph unicode="&#x2018;" horiz-adv-x="376" d="M74 918q27 242 151 497h109q-83 -236 -117 -497h-143z" />
<glyph unicode="&#x2019;" horiz-adv-x="374" d="M39 918q84 225 117 497h145q-16 -127 -59.5 -259.5t-94.5 -237.5h-108z" />
<glyph unicode="&#x201c;" horiz-adv-x="667" d="M74 918q27 242 151 497h109q-83 -236 -117 -497h-143zM362 918q16 126 59.5 259.5t94.5 237.5h109q-85 -231 -117 -497h-146z" />
<glyph unicode="&#x201d;" horiz-adv-x="667" d="M39 918q84 225 117 497h145q-16 -127 -59.5 -259.5t-94.5 -237.5h-108zM330 918q85 237 116 497h144q-23 -232 -152 -497h-108z" />
<glyph unicode="&#x2022;" horiz-adv-x="643" d="M125 551q0 102 57.5 154.5t139.5 52.5q85 0 140.5 -48.5t55.5 -158.5q0 -96 -56.5 -148.5t-144.5 -52.5q-78 0 -135 51.5t-57 149.5z" />
<glyph unicode="&#x2026;" horiz-adv-x="1597" d="M162 92q0 55 30.5 83t73.5 28q44 0 74.5 -26.5t30.5 -84.5q0 -53 -29.5 -78.5t-77.5 -25.5q-39 0 -70.5 25t-31.5 79zM694 92q0 55 31 83t74 28q44 0 74 -26.5t30 -84.5q0 -53 -29.5 -78.5t-76.5 -25.5q-40 0 -71.5 25t-31.5 79zM1227 92q0 55 30.5 83t73.5 28 q44 0 74.5 -26.5t30.5 -84.5q0 -53 -29.5 -78.5t-77.5 -25.5q-39 0 -70.5 25t-31.5 79z" />
<glyph unicode="&#x202f;" horiz-adv-x="308" />
<glyph unicode="&#x205f;" horiz-adv-x="386" />
<glyph unicode="&#x20ac;" horiz-adv-x="1341" d="M158 506v92h151v16q0 66 6 131h-157v91h170q46 244 191.5 378t365.5 134q187 0 344 -91l-64 -133q-134 86 -288 86q-67 0 -127.5 -21.5t-114.5 -64.5t-94.5 -117t-61.5 -171h557v-91h-571q-6 -59 -6 -122v-25h577v-92h-569q27 -189 134 -291t259 -102q112 0 196 42.5 t169 135.5l75 -105q-191 -211 -469 -211q-208 0 -349.5 140.5t-168.5 390.5h-155z" />
<glyph unicode="&#x2122;" horiz-adv-x="1705" d="M121 1298v86h565v-86h-235v-651h-97v651h-233zM811 647l27 737h129q150 -306 225 -475q51 116 225 475h119l31 -737h-97q-24 608 -24 617q-44 -108 -225 -480h-64q-172 347 -231 482q0 -103 -21 -619h-94z" />
</font>
</defs>
</svg>
